<svg width="80" height="80" viewBox="0 0 80 80" fill="none" xmlns="http://www.w3.org/2000/svg">
<path d="M54.2247 71.4575C54.0363 71.3667 52.187 69.4115 50.1151 67.1126L46.348 62.9327L45.0431 62.8324C42.2805 62.6201 40.1108 61.8402 38.6644 60.5398L37.8895 59.8431L36.0627 60.1028C33.8869 60.4122 30.6433 60.3349 29.2066 59.9394C28.0357 59.617 26.2974 58.8127 25.4387 58.1961L24.762 57.7101L26.0031 56.4012C28.5248 53.7418 30.0709 50.241 30.5194 46.1752C30.7227 44.3322 30.5207 42.5068 29.9977 41.4534C29.4064 40.263 27.9747 39.7683 26.7723 40.3388C25.6249 40.8833 25.2302 41.942 25.5924 43.5036C25.7885 44.3492 25.8018 44.747 25.6674 45.7562C24.9609 51.0654 22.4872 54.1052 18.0359 55.1341C16.4158 55.5086 13.7061 55.5071 12.4505 55.1312C10.1957 54.4558 8.09953 52.8697 6.6865 50.7696C6.28662 50.1752 5.63241 49.2791 5.23271 48.7782C1.20636 43.7324 0.314352 37.9297 2.7267 32.4762L3.03789 31.7727L3.68859 33.0692C5.6156 36.9088 9.17782 39.8608 13.3374 41.0651C14.971 41.5381 16.9312 41.7168 17.7005 41.4629C19.2666 40.9461 19.8101 38.8726 18.7085 37.6179C18.1527 36.9849 17.7739 36.8463 16.0735 36.6535C13.7976 36.3956 11.884 35.4418 10.0934 33.673C7.90575 31.512 6.86425 28.8527 7.24261 26.394C7.6347 23.846 10.224 20.2902 13.4045 17.9321C15.5269 16.3584 19.3221 14.6722 21.4574 14.3542C22.8965 14.1399 24.8039 14.853 26.1967 16.126C27.2871 17.1225 27.7112 17.975 27.8069 19.3624C27.9327 21.1881 28.7684 22.1295 30.2633 22.1295C31.259 22.1295 31.9448 21.6984 32.4264 20.7697C32.7382 20.1684 32.7681 19.9548 32.69 18.884C32.5102 16.417 31.4908 14.342 29.5815 12.5561C29.1569 12.1589 28.8309 11.8135 28.8571 11.7885C28.9693 11.6815 30.9948 11.0599 32.5277 10.6621C38.1643 9.1993 44.2478 9.0166 49.4024 10.1553L50.4267 10.3816L49.0752 11.6538C48.3319 12.3536 47.3847 13.3835 46.9703 13.9426C45.1494 16.3997 43.8663 19.5658 43.3161 22.9598C43.0673 24.4944 43.0996 27.8607 43.3691 28.4914C44.1844 30.3987 46.759 30.563 47.7211 28.7691C47.9491 28.3439 48.0006 27.9107 48.0006 26.4161C48.0006 23.6082 48.6117 20.8818 49.7416 18.6486C50.6278 16.8971 52.4566 15.1951 54.6659 14.0659C56.8658 12.9415 57.8794 13.0792 60.6225 14.8754C63.0693 16.4776 63.4589 18.0415 62.07 20.6863C61.2719 22.206 59.959 23.4877 58.7583 23.9193C57.591 24.3388 57.0448 24.9752 56.943 26.0341C56.8916 26.5698 56.9545 26.9146 57.1876 27.3711C57.8885 28.7451 59.4826 29.0258 61.3644 28.1065C63.7725 26.9301 65.7842 24.5869 67.0604 21.4722L67.5462 20.2865L69.0573 21.8498C69.8885 22.7096 71.1799 24.1553 71.9271 25.0625C72.6743 25.9697 73.7512 27.2263 74.3203 27.855C79.3299 33.3899 79.9869 39.6581 76.1374 45.1929L75.4779 46.1412L76.0099 46.9424C76.3025 47.3831 76.6842 48.1111 76.8581 48.5603C77.2591 49.5961 77.4003 51.9358 77.1418 53.2619C76.3333 57.4102 72.4249 61.8088 67.4562 64.1625C66.0267 64.8397 63.7503 65.6477 62.736 65.838C62.4359 65.8943 62.1916 66.0177 62.193 66.1122C62.1943 66.2068 62.3291 66.7936 62.4923 67.4163C63.0433 69.5183 62.8123 70.6645 61.7012 71.3419C61.2482 71.6181 60.9461 71.6411 57.8882 71.6322C55.8142 71.6263 54.4385 71.5606 54.2246 71.4575L54.2247 71.4575ZM60.4034 56.1549C60.9562 55.8725 61.4027 55.2671 61.6036 54.5276C61.8418 53.6505 61.678 51.5305 61.2847 50.4001C60.6457 48.5635 58.8294 46.3012 56.7899 44.8017C56.1307 44.317 55.8697 44.0345 55.9318 43.8729C56.6962 41.8831 56.9723 38.6647 56.5439 36.7392C56.1496 34.9669 55.4042 33.5777 54.2029 32.3764C53.1847 31.3582 51.9068 30.5877 51.231 30.5845C49.8952 30.5783 48.7554 31.6931 48.7554 33.0058C48.7554 33.9248 49.1434 34.5954 50.0361 35.2192C50.4702 35.5226 50.9816 35.9989 51.1727 36.2777C51.6074 36.9121 51.9263 38.115 51.9229 39.1072C51.9204 39.8083 51.5615 41.8662 51.4163 42.0114C51.3816 42.0461 50.8197 41.963 50.1675 41.8269C48.7447 41.5299 46.3054 41.4909 45.057 41.7452C43.5468 42.0528 41.7626 43.0046 40.6952 44.0721C39.681 45.0863 38.9413 46.3691 38.9466 47.1046C38.9517 47.8237 39.456 48.7679 40.0199 49.1146C41.3414 49.927 42.5396 49.6079 43.6359 48.1515C44.5465 46.9418 45.3851 46.5281 47.0745 46.4554C48.637 46.3881 50.0213 46.6979 51.7509 47.502C54.041 48.5667 55.7425 50.0203 56.4787 51.5411C56.7449 52.0909 56.8235 52.5314 56.8387 53.5573C56.8562 54.7351 56.9001 54.9248 57.2661 55.4047C58.0838 56.4767 59.2347 56.7519 60.4034 56.1549V56.1549ZM65.8414 40.1576C66.9372 39.944 68.0185 39.6736 68.2443 39.5568C69.1623 39.0822 69.6794 37.9087 69.4384 36.8477C69.2668 36.0926 68.3267 35.1721 67.5849 35.0329C66.9276 34.9096 62.6429 35.7505 61.9951 36.1299C61.3105 36.5308 60.9488 37.1187 60.8678 37.9615C60.8077 38.587 60.8626 38.8372 61.1842 39.3848C61.9193 40.6392 62.7039 40.7694 65.8414 40.1576ZM41.0103 36.9257C41.4788 36.761 42.0293 36.4723 42.2336 36.2841C43.0605 35.5226 43.2619 34.1581 42.6758 33.2884C41.9485 32.2091 40.8144 31.8331 39.6053 32.2704C38.8592 32.5401 38.1015 32.2457 37.2084 31.3389L36.4561 30.5751L36.8554 29.862C37.8333 28.1161 38.0006 25.924 37.2687 24.4475C36.3689 22.6324 33.8937 22.628 32.9567 24.4399C32.7788 24.7839 32.7381 25.1576 32.7984 25.8937C32.8573 26.6128 32.8156 27.0206 32.6462 27.3804C31.9723 28.8122 28.8506 30.1978 26.943 29.9117C26.4223 29.8336 26.0649 29.6433 25.5051 29.1462C24.4373 28.1978 23.4979 28.0883 22.361 28.7797C21.8238 29.1064 21.2901 30.0966 21.2848 30.7765C21.2759 31.8197 22.4391 33.2657 23.8683 33.9899C25.975 35.0575 29.0887 35.0513 31.7394 33.9742L32.6138 33.6189L33.7029 34.7189C35.453 36.4864 36.9821 37.2103 38.9848 37.2196C39.7802 37.2234 40.433 37.1286 41.0103 36.9257V36.9257Z" fill="url(#paint0_linear)"/>
<defs>
<linearGradient id="paint0_linear" x1="40.0066" y1="9.41602" x2="40.0066" y2="71.6337" gradientUnits="userSpaceOnUse">
<stop stop-color="#DCAD55"/>
<stop offset="0.0001" stop-color="#DCAD55"/>
<stop offset="1" stop-color="#8C6E34"/>
</linearGradient>
</defs>
</svg>
