<svg width="27" height="27" viewBox="0 0 27 27" fill="none" xmlns="http://www.w3.org/2000/svg">
<path d="M27 13.5C27 6.04336 20.9566 0 13.5 0C6.04336 0 0 6.04336 0 13.5C0 20.9566 6.04336 27 13.5 27C13.5791 27 13.6582 27 13.7373 26.9947V16.49H10.8369V13.1098H13.7373V10.6207C13.7373 7.73613 15.4986 6.16465 18.0721 6.16465C19.3061 6.16465 20.366 6.2543 20.6719 6.29648V9.31289H18.9C17.5025 9.31289 17.2283 9.97734 17.2283 10.9529V13.1045H20.577L20.1393 16.4848H17.2283V26.4779C22.8709 24.859 27 19.6646 27 13.5Z" fill="white"/>
</svg>
