<svg width="37" height="48" viewBox="0 0 37 48" fill="none" xmlns="http://www.w3.org/2000/svg">
<path d="M30.1024 15.2403L28.5996 14.0211L27.8998 15.8267C27.8864 15.8612 26.542 19.2604 24.4776 18.6411C24.0205 18.504 23.7139 18.2395 23.5129 17.8086C23.0002 16.7104 23.2183 14.7226 24.0684 12.7445C25.2439 10.0092 24.7292 7.14297 22.5798 4.45558C21.0679 2.56533 19.2514 1.42099 19.1747 1.37315L16.9738 0L17.0229 2.59385C17.0237 2.6402 17.0711 7.24851 13.659 8.93837C11.5684 9.9737 10.0719 11.6861 9.44496 13.7601C8.85854 15.7004 9.1048 17.8218 10.1207 19.5803C10.5366 20.3001 10.6626 20.9107 10.4954 21.3949C10.2565 22.0868 9.48455 22.443 9.25358 22.5357C6.81424 23.5154 5.21744 20.2447 5.1529 20.1097L4.04018 17.7347L2.6766 19.9751C0.925471 22.852 0 26.1627 0 29.5495C0 39.6491 8.15794 47.8779 18.2307 47.9973C18.3042 47.9992 18.378 48.0001 18.452 48.0001C28.6267 48.0001 36.9047 39.7231 36.9047 29.5495C36.9047 23.9785 34.4255 18.763 30.1024 15.2403ZM12.6813 39.4153L12.6813 39.3979C12.6675 38.2779 12.8808 37.0768 13.3168 35.8148L16.7852 36.8286L16.8202 34.9882C16.8737 32.1696 18.4632 30.4393 19.734 29.5032C20.0598 30.921 20.5678 32.1851 21.2693 33.3317C22.0693 34.6369 22.8268 35.7433 23.5255 36.7434C23.9744 37.3872 24.229 38.3592 24.224 39.41V39.4168C24.224 40.9576 23.6236 42.4066 22.5334 43.4968C21.4442 44.5858 19.9948 45.1857 18.4521 45.1857C18.4523 45.1857 18.4519 45.1857 18.4521 45.1857C15.2714 45.1854 12.6825 42.5979 12.6813 39.4153ZM26.1975 43.1292C26.7469 41.9859 27.038 40.7253 27.0384 39.4197C27.0456 37.7798 26.618 36.2576 25.8333 35.1324C25.054 34.0169 24.3878 33.0336 23.6694 31.8616C22.8686 30.5528 22.3869 29.0103 22.1973 27.1462L22.0119 25.324L20.299 25.9727C20.1384 26.0335 18.6874 26.6056 17.2002 27.9548C15.623 29.3854 14.6049 31.1546 14.2013 33.1411L11.6858 32.4059L11.1892 33.5384C10.2903 35.5886 9.84545 37.5686 9.86694 39.424C9.86825 40.752 10.1728 42.0103 10.7147 43.1334C5.99938 40.4376 2.81431 35.3585 2.81431 29.5493C2.81431 27.4361 3.2391 25.3582 4.05481 23.4372C4.17986 23.5754 4.31289 23.7135 4.45389 23.8494C6.17762 25.5086 8.25456 25.9695 10.302 25.1474C11.6852 24.5921 12.7252 23.5592 13.1555 22.3137C13.4618 21.4268 13.6067 19.9885 12.5575 18.1723C11.9199 17.0685 11.7712 15.7907 12.1388 14.5743C12.5384 13.2527 13.5217 12.1468 14.9079 11.4603C17.8251 10.0154 19.0177 7.30311 19.5041 5.24559C19.8111 5.54748 20.1265 5.88943 20.4229 6.26543C21.8689 8.09874 22.2254 9.90474 21.4826 11.6334C20.2945 14.398 20.1 17.1516 20.9625 18.9991C21.5042 20.16 22.4401 20.9683 23.6687 21.3369C25.5999 21.9164 27.4887 21.2418 28.9873 19.4378C29.2219 19.1554 29.429 18.8679 29.6093 18.5916C32.4756 21.5041 34.0902 25.4111 34.0902 29.5493C34.0903 35.3555 30.9088 40.4322 26.1975 43.1292Z" fill="#DCAD55"/>
</svg>
