<svg width="80" height="55" viewBox="0 0 80 55" fill="none" xmlns="http://www.w3.org/2000/svg">
<path fill-rule="evenodd" clip-rule="evenodd" d="M2.5 0H36.7188C37.1502 0 37.5 0.349844 37.5 0.78125V29.2188C37.5 29.6502 37.1502 30 36.7188 30H0.78125C0.349844 30 0 29.6502 0 29.2188V2.5C0 1.11922 1.11922 0 2.5 0ZM25 7.5C25 6.11875 23.8813 5 22.5 5C21.1187 5 20 6.11875 20 7.5C20 8.88125 21.1187 10 22.5 10C23.8813 10 25 8.88125 25 7.5ZM17.5 7.5C17.5 6.11875 16.3813 5 15 5C13.6187 5 12.5 6.11875 12.5 7.5C12.5 8.88125 13.6187 10 15 10C16.3813 10 17.5 8.88125 17.5 7.5ZM10 7.5C10 6.11875 8.88125 5 7.5 5C6.11875 5 5 6.11875 5 7.5C5 8.88125 6.11875 10 7.5 10C8.88125 10 10 8.88125 10 7.5ZM5 22.5C5 23.8813 6.11875 25 7.5 25C8.88125 25 10 23.8813 10 22.5C10 21.1187 8.88125 20 7.5 20C6.11875 20 5 21.1187 5 22.5ZM11.25 12.5C9.86875 12.5 8.75 13.6187 8.75 15C8.75 16.3813 9.86875 17.5 11.25 17.5C12.6313 17.5 13.75 16.3813 13.75 15C13.75 13.6187 12.6313 12.5 11.25 12.5ZM12.5 22.5C12.5 23.8813 13.6187 25 15 25C16.3813 25 17.5 23.8813 17.5 22.5C17.5 21.1187 16.3813 20 15 20C13.6187 20 12.5 21.1187 12.5 22.5ZM18.75 12.5C17.3687 12.5 16.25 13.6187 16.25 15C16.25 16.3813 17.3687 17.5 18.75 17.5C20.1313 17.5 21.25 16.3813 21.25 15C21.25 13.6187 20.1313 12.5 18.75 12.5ZM20 22.5C20 23.8813 21.1187 25 22.5 25C23.8813 25 25 23.8813 25 22.5C25 21.1187 23.8813 20 22.5 20C21.1187 20 20 21.1187 20 22.5ZM26.25 12.5C24.8687 12.5 23.75 13.6187 23.75 15C23.75 16.3813 24.8687 17.5 26.25 17.5C27.6313 17.5 28.75 16.3813 28.75 15C28.75 13.6187 27.6313 12.5 26.25 12.5ZM27.5 22.5C27.5 23.8813 28.6187 25 30 25C31.3813 25 32.5 23.8813 32.5 22.5C32.5 21.1187 31.3813 20 30 20C28.6187 20 27.5 21.1187 27.5 22.5ZM27.5 7.5C27.5 8.88125 28.6187 10 30 10C31.3813 10 32.5 8.88125 32.5 7.5C32.5 6.11875 31.3813 5 30 5C28.6187 5 27.5 6.11875 27.5 7.5ZM43.2812 0H77.5C78.8808 0 80 1.11922 80 2.5V6.71875C80 7.15016 79.6502 7.5 79.2188 7.5H43.2812C42.8498 7.5 42.5 7.15016 42.5 6.71875V5V0.78125C42.5 0.349844 42.8498 0 43.2812 0ZM42.5 15V17.9688C42.5 18.4002 42.8498 18.75 43.2812 18.75H79.2188C79.6502 18.75 80 18.4002 80 17.9688V13.2812C80 12.8498 79.6502 12.5 79.2188 12.5H43.2812C42.8498 12.5 42.5 12.8498 42.5 13.2812V15ZM43.2812 30C42.8498 30 42.5 29.6502 42.5 29.2188V24.5312C42.5 24.0998 42.8498 23.75 43.2812 23.75H79.2188C79.6502 23.75 80 24.0998 80 24.5312V29.2188C80 29.6502 79.6502 30 79.2188 30H43.2812ZM0 35.7812V41.7188C0 42.1502 0.349844 42.5 0.78125 42.5H79.2188C79.6502 42.5 80 42.1502 80 41.7188V35.7812C80 35.3498 79.6502 35 79.2188 35H0.78125C0.349844 35 0 35.3498 0 35.7812ZM0 52.5V48.2812C0 47.8498 0.349844 47.5 0.78125 47.5H79.2188C79.6502 47.5 80 47.8498 80 48.2812V52.5C80 53.8808 78.8808 55 77.5 55H2.5C1.11922 55 0 53.8808 0 52.5Z" fill="url(#paint0_linear)"/>
<defs>
<linearGradient id="paint0_linear" x1="0" y1="0" x2="80" y2="55.2" gradientUnits="userSpaceOnUse">
<stop stop-color="#DCAD55"/>
<stop offset="1" stop-color="#8C6E34"/>
</linearGradient>
</defs>
</svg>
