<svg width="80" height="67" viewBox="0 0 80 67" fill="none" xmlns="http://www.w3.org/2000/svg">
<path fill-rule="evenodd" clip-rule="evenodd" d="M48.2759 7.95C48.2759 12.3407 44.5707 15.9 40.0001 15.9C35.4294 15.9 31.7242 12.3407 31.7242 7.95C31.7242 3.55934 35.4294 0 40.0001 0C44.5707 0 48.2759 3.55934 48.2759 7.95ZM40.0001 15.9H30.3446C28.8813 15.9 27.478 16.4584 26.4433 17.4523C25.4086 18.4463 24.8273 19.7944 24.8273 21.2H55.1722C55.1722 19.7944 54.5909 18.4463 53.5562 17.4523C52.5215 16.4584 51.1182 15.9 49.6549 15.9H40.0001ZM69.4625 38.425H66.7039C66.7039 37.009 67.4655 36.2462 67.9705 35.7404L67.971 35.7399C68.3877 35.3227 68.4694 35.2129 68.4694 34.8907C68.4694 34.5686 68.3877 34.4588 67.971 34.0416C67.4663 33.5366 66.7039 32.7726 66.7039 31.3571C66.7039 29.9417 67.4663 29.1788 67.971 28.674C68.3877 28.2568 68.4694 28.1471 68.4694 27.825H71.228C71.228 29.241 70.466 30.0038 69.9615 30.5088L69.961 30.5093C69.5442 30.9262 69.4625 31.0356 69.4625 31.3579C69.4625 31.6803 69.5442 31.7901 69.961 32.2073L69.961 32.2073C70.4657 32.7123 71.228 33.4752 71.228 34.8916C71.228 36.3075 70.466 37.0703 69.9615 37.5753L69.961 37.5758C69.5442 37.993 69.4625 38.1029 69.4625 38.425ZM68.9657 50.35H73.1036C73.8352 50.35 74.5369 50.0708 75.0542 49.5738C75.5716 49.0769 75.8622 48.4028 75.8622 47.7V41.075H66.207V47.7C66.207 48.4028 66.4977 49.0769 67.015 49.5738C67.5323 50.0708 68.234 50.35 68.9657 50.35ZM12.4141 49.025C12.4141 48.3222 12.1235 47.6481 11.6062 47.1512C11.0888 46.6542 10.3872 46.375 9.65552 46.375H6.8969C6.16527 46.375 5.4636 46.6542 4.94626 47.1512C4.42892 47.6481 4.13828 48.3222 4.13828 49.025V50.1844H12.4141V49.025ZM4.13828 66.25V59.625H75.8624V66.25H4.13828ZM80 56.975V53H0V56.975H80ZM72.2211 38.425H74.9797C74.9797 38.1029 75.0614 37.993 75.4782 37.5758L75.4787 37.5753C75.9831 37.0703 76.7452 36.3075 76.7452 34.8916C76.7452 33.4752 75.9829 32.7123 75.4782 32.2073L75.4782 32.2073C75.0614 31.7901 74.9797 31.6803 74.9797 31.3579C74.9797 31.0356 75.0614 30.9262 75.4782 30.5093L75.4787 30.5088C75.9831 30.0038 76.7452 29.241 76.7452 27.825H73.9866C73.9866 28.1471 73.9049 28.2568 73.4882 28.674C72.9835 29.1788 72.2211 29.9417 72.2211 31.3571C72.2211 32.7726 72.9835 33.5366 73.4882 34.0416C73.9049 34.4588 73.9866 34.5686 73.9866 34.8907C73.9866 35.2129 73.9049 35.3227 73.4882 35.7399L73.4877 35.7404C72.9827 36.2462 72.2211 37.009 72.2211 38.425ZM20.6899 50.35H59.3106L62.0692 23.85H17.9312L20.6899 50.35ZM40.0002 33.125C40.8186 33.125 41.6186 33.3581 42.2991 33.7949C42.9796 34.2317 43.51 34.8525 43.8232 35.5788C44.1364 36.3052 44.2183 37.1044 44.0586 37.8755C43.899 38.6466 43.5049 39.3548 42.9262 39.9107C42.3475 40.4667 41.6102 40.8452 40.8075 40.9986C40.0048 41.152 39.1728 41.0733 38.4167 40.7724C37.6606 40.4716 37.0143 39.9621 36.5597 39.3084C36.105 38.6547 35.8623 37.8862 35.8623 37.1C35.8623 36.0458 36.2982 35.0347 37.0743 34.2893C37.8503 33.5438 38.9028 33.125 40.0002 33.125Z" fill="url(#paint0_linear)"/>
<defs>
<linearGradient id="paint0_linear" x1="0" y1="0" x2="80" y2="66.4" gradientUnits="userSpaceOnUse">
<stop stop-color="#DCAD55"/>
<stop offset="1" stop-color="#8C6E34"/>
</linearGradient>
</defs>
</svg>
