<svg width="26" height="28" viewBox="0 0 26 28" fill="none" xmlns="http://www.w3.org/2000/svg">
<g clip-path="url(#clip0)">
<path d="M24.3044 5.45466H22.4118C22.6614 5.02919 22.8262 4.5516 22.8731 4.04651C23.0232 2.4323 22.2338 0.985269 20.8899 0.34373C19.6546 -0.245966 18.2664 -0.00490306 17.2667 0.971488L14.877 3.30391C14.4116 2.75572 13.7425 2.41119 13 2.41119C12.2562 2.41119 11.586 2.75682 11.1205 3.3067L8.72772 0.971214C7.72647 -0.00517645 6.33882 -0.245309 5.10407 0.344058C3.7605 0.985652 2.97096 2.43317 3.12147 4.04733C3.16855 4.55204 3.33318 5.02941 3.58277 5.45466H1.69564C0.759129 5.45466 0 6.27224 0 7.28073L0 10.0199C0 10.5241 0.37959 10.9329 0.847844 10.9329L25.1522 10.9329C25.6204 10.9329 26 10.5241 26 10.0199V7.28073C26 6.27224 25.2409 5.45466 24.3044 5.45466ZM10.4565 5.15032V5.45466H6.46801C5.4142 5.45466 4.58484 4.39668 4.84804 3.2151C4.96397 2.69475 5.31273 2.25118 5.76382 2.02663C6.38325 1.7183 7.06941 1.81728 7.58966 2.3244L10.4572 5.12342C10.4571 5.13244 10.4565 5.1413 10.4565 5.15032ZM21.1907 3.80408C21.1275 4.75307 20.3315 5.45477 19.4481 5.45477H15.5435V5.15043C15.5435 5.13966 15.5429 5.12899 15.5428 5.11822C16.1924 4.48407 17.6016 3.10857 18.3659 2.36246C18.8003 1.93847 19.4081 1.74056 19.9699 1.92103C20.7762 2.18003 21.2497 2.91842 21.1907 3.80408Z" fill="#B09157"/>
<path d="M1.69531 12.7578L1.69531 26.1491C1.69531 27.1577 2.45444 27.9752 3.39095 27.9752H11.304V12.7578H1.69531Z" fill="#B09157"/>
<path d="M14.6953 12.7578V27.9752H22.6084C23.5449 27.9752 24.304 27.1577 24.304 26.1491V12.7578H14.6953Z" fill="#B09157"/>
</g>
<defs>
<clipPath id="clip0">
<rect width="26" height="28" fill="white"/>
</clipPath>
</defs>
</svg>
