<svg width="80" height="67" viewBox="0 0 80 67" fill="none" xmlns="http://www.w3.org/2000/svg">
<path fill-rule="evenodd" clip-rule="evenodd" d="M78.4361 13.4197L40.7798 0.133594C40.2753 -0.0445312 39.7248 -0.0445312 39.2203 0.133594L1.56407 13.4197C0.627816 13.75 0.00125374 14.6344 1.86737e-06 15.6272C-0.00124626 16.62 0.623285 17.5058 1.55875 17.8383L39.215 31.2253C39.4689 31.3156 39.7345 31.3608 40 31.3608C40.2656 31.3608 40.5311 31.3156 40.785 31.2253L78.4412 17.8383C79.3767 17.5058 80.0011 16.62 80 15.6272C79.9987 14.6344 79.3722 13.75 78.4361 13.4197ZM74.3711 44.7031V24.2594L69.6836 25.9258V44.7031C68.2717 45.5158 67.3203 47.0384 67.3203 48.7845C67.3203 50.5305 68.2717 52.0533 69.6836 52.8659V64.3841C69.6836 65.6785 70.733 66.7278 72.0273 66.7278C73.3217 66.7278 74.3711 65.6785 74.3711 64.3841V52.8661C75.783 52.0536 76.7344 50.5306 76.7344 48.7847C76.7344 47.0386 75.7831 45.5158 74.3711 44.7031ZM37.645 35.6414C38.4033 35.9109 39.1956 36.0477 40.0002 36.0477C40.8047 36.0477 41.597 35.9109 42.3555 35.6414L63.5245 28.1156V38.4294C63.5245 40.9527 60.8922 43.0866 55.7006 44.7716C51.1753 46.2403 45.5995 47.0492 40.0002 47.0492C34.4008 47.0492 28.8248 46.2403 24.2997 44.7716C19.1081 43.0866 16.4758 40.9527 16.4758 38.4294V28.1156L37.645 35.6414Z" fill="url(#paint0_linear)"/>
<defs>
<linearGradient id="paint0_linear" x1="16.5" y1="-1.07172e-06" x2="80" y2="46.5" gradientUnits="userSpaceOnUse">
<stop stop-color="#DCAD55"/>
<stop offset="1" stop-color="#8C6E34"/>
</linearGradient>
</defs>
</svg>
