<svg width="48" height="48" viewBox="0 0 48 48" fill="none" xmlns="http://www.w3.org/2000/svg">
<path d="M24 45.3296C23.3166 45.3296 22.6578 45.082 22.1444 44.6323C20.2053 42.9368 18.3358 41.3434 16.6864 39.9379L16.6779 39.9305C11.8421 35.8096 7.66624 32.2507 4.76073 28.745C1.51281 24.8258 0 21.1099 0 17.0504C0 13.1063 1.35241 9.46765 3.80785 6.8042C6.29259 4.10925 9.70201 2.625 13.4092 2.625C16.1799 2.625 18.7174 3.50098 20.9509 5.22839C22.0781 6.10034 23.0998 7.16748 24 8.41223C24.9005 7.16748 25.9218 6.10034 27.0494 5.22839C29.2829 3.50098 31.8204 2.625 34.5911 2.625C38.2979 2.625 41.7077 4.10925 44.1924 6.8042C46.6479 9.46765 47.9999 13.1063 47.9999 17.0504C47.9999 21.1099 46.4875 24.8258 43.2395 28.7446C40.334 32.2507 36.1585 35.8092 31.3234 39.9298C29.6711 41.3375 27.7987 42.9335 25.8552 44.6331C25.3421 45.082 24.6829 45.3296 24 45.3296ZM13.4092 5.43677C10.4967 5.43677 7.82115 6.59912 5.87474 8.70996C3.89941 10.8527 2.8114 13.8146 2.8114 17.0504C2.8114 20.4646 4.08031 23.5181 6.9254 26.9509C9.67527 30.2692 13.7655 33.7548 18.5013 37.7908L18.5101 37.7981C20.1657 39.2091 22.0426 40.8087 23.9959 42.5167C25.961 40.8054 27.8408 39.2032 29.4997 37.79C34.2352 33.754 38.325 30.2692 41.0749 26.9509C43.9196 23.5181 45.1885 20.4646 45.1885 17.0504C45.1885 13.8146 44.1005 10.8527 42.1252 8.70996C40.1791 6.59912 37.5032 5.43677 34.5911 5.43677C32.4576 5.43677 30.4987 6.11499 28.7691 7.45239C27.2277 8.64478 26.154 10.1521 25.5245 11.2068C25.2008 11.7491 24.6309 12.0729 24 12.0729C23.369 12.0729 22.7992 11.7491 22.4754 11.2068C21.8463 10.1521 20.7725 8.64478 19.2308 7.45239C17.5012 6.11499 15.5423 5.43677 13.4092 5.43677Z" fill="#DCAD55"/>
</svg>
