<svg width="48" height="49" viewBox="0 0 48 49" fill="none" xmlns="http://www.w3.org/2000/svg">
<path d="M46.7109 20.8798C46.7095 20.8787 46.7084 20.8772 46.7073 20.8761L27.1251 1.29469C26.2904 0.459641 25.1807 0 24.0003 0C22.8199 0 21.7101 0.459641 20.8751 1.29469L1.30316 20.8662C1.29657 20.8728 1.28961 20.8798 1.28338 20.8864C-0.430658 22.6103 -0.427728 25.4074 1.29181 27.1269C2.07741 27.9129 3.11462 28.3677 4.22399 28.4157C4.2694 28.4201 4.31482 28.4223 4.3606 28.4223H5.14071V42.8327C5.14071 45.6847 7.46125 48.0049 10.3132 48.0049H17.9744C18.7512 48.0049 19.3808 47.3749 19.3808 46.5985V35.3004C19.3808 33.9992 20.4396 32.9407 21.7409 32.9407H26.2597C27.5609 32.9407 28.6194 33.9992 28.6194 35.3004V46.5985C28.6194 47.3749 29.249 48.0049 30.0258 48.0049H37.687C40.5393 48.0049 42.8595 45.6847 42.8595 42.8327V28.4223H43.5832C44.7632 28.4223 45.873 27.9627 46.7084 27.1273C48.4297 25.4052 48.4305 22.603 46.7109 20.8798ZM44.7193 25.1385C44.4157 25.4421 44.0121 25.6095 43.5832 25.6095H41.4531C40.6763 25.6095 40.0467 26.2391 40.0467 27.0159V42.8327C40.0467 44.1336 38.9882 45.1921 37.687 45.1921H31.4322V35.3004C31.4322 32.4485 29.112 30.1279 26.2597 30.1279H21.7409C18.8886 30.1279 16.568 32.4485 16.568 35.3004V45.1921H10.3132C9.01231 45.1921 7.95349 44.1336 7.95349 42.8327V27.0159C7.95349 26.2391 7.32391 25.6095 6.5471 25.6095H4.45362C4.43165 25.6081 4.41004 25.607 4.3877 25.6066C3.96871 25.5993 3.57573 25.433 3.28126 25.1382C2.65498 24.5119 2.65498 23.4926 3.28126 22.866C3.28163 22.866 3.28163 22.8656 3.282 22.8652L3.2831 22.8641L22.8645 3.28341C23.1678 2.97979 23.571 2.81278 24.0003 2.81278C24.4292 2.81278 24.8324 2.97979 25.136 3.28341L44.7131 22.8601C44.716 22.863 44.7193 22.866 44.7222 22.8689C45.3452 23.4963 45.3441 24.5133 44.7193 25.1385Z" fill="#DCAD55"/>
</svg>
