<svg width="24" height="24" viewBox="0 0 24 24" fill="none" xmlns="http://www.w3.org/2000/svg">
<g opacity="0.5">
<path d="M15.92 13.9424L12.8526 11.6418V6.95559C12.8526 6.48439 12.4717 6.10352 12.0005 6.10352C11.5293 6.10352 11.1484 6.48439 11.1484 6.95559V12.0679C11.1484 12.3363 11.2746 12.5894 11.4893 12.7496L14.8975 15.3057C15.0508 15.4208 15.2298 15.4762 15.4078 15.4762C15.6677 15.4762 15.9233 15.3594 16.0904 15.1345C16.3733 14.7587 16.2966 14.2244 15.92 13.9424Z" fill="white" stroke="white" stroke-width="0.1"/>
<path d="M12 1C5.93423 1 1 5.93423 1 12C1 18.0658 5.93423 23 12 23C18.0658 23 23 18.0658 23 12C23 5.93423 18.0658 1 12 1ZM12 21.2959C6.8749 21.2959 2.7041 17.1251 2.7041 12C2.7041 6.8749 6.8749 2.7041 12 2.7041C17.126 2.7041 21.2959 6.8749 21.2959 12C21.2959 17.1251 17.1251 21.2959 12 21.2959Z" fill="white" stroke="white" stroke-width="0.1"/>
</g>
</svg>
