<svg width="29" height="20" viewBox="0 0 29 20" fill="none" xmlns="http://www.w3.org/2000/svg">
<g opacity="0.5">
<path d="M27.6143 18.7429H1.38571C1.28342 18.7429 1.18531 18.7022 1.11297 18.6299C1.04064 18.5575 1 18.4594 1 18.3571V1.38571C1 1.28342 1.04064 1.18531 1.11297 1.11297C1.18531 1.04064 1.28342 1 1.38571 1H27.6143C27.7166 1 27.8147 1.04064 27.887 1.11297C27.9594 1.18531 28 1.28342 28 1.38571V18.3571C28 18.4594 27.9594 18.5575 27.887 18.6299C27.8147 18.7022 27.7166 18.7429 27.6143 18.7429ZM1.77143 17.9714H27.2286V1.77143H1.77143V17.9714Z" fill="white" stroke="white" stroke-width="0.8" stroke-linejoin="round"/>
<path d="M23.7573 16.4287H5.24302C5.14073 16.4287 5.04262 16.3881 4.97028 16.3158C4.89795 16.2434 4.85731 16.1453 4.85731 16.043C4.85731 15.7361 4.7354 15.4418 4.51839 15.2248C4.30138 15.0078 4.00706 14.8859 3.70017 14.8859C3.59787 14.8859 3.49976 14.8452 3.42743 14.7729C3.35509 14.7006 3.31445 14.6025 3.31445 14.5002V5.24302C3.31445 5.14073 3.35509 5.04262 3.42743 4.97028C3.49976 4.89795 3.59787 4.85731 3.70017 4.85731C4.00706 4.85731 4.30138 4.7354 4.51839 4.51839C4.7354 4.30138 4.85731 4.00706 4.85731 3.70017C4.85731 3.59787 4.89795 3.49976 4.97028 3.42743C5.04262 3.35509 5.14073 3.31445 5.24302 3.31445H23.7573C23.8596 3.31445 23.9577 3.35509 24.0301 3.42743C24.1024 3.49976 24.143 3.59787 24.143 3.70017C24.143 4.00706 24.2649 4.30138 24.4819 4.51839C24.699 4.7354 24.9933 4.85731 25.3002 4.85731C25.4025 4.85731 25.5006 4.89795 25.5729 4.97028C25.6452 5.04262 25.6859 5.14073 25.6859 5.24302V14.5002C25.6859 14.6025 25.6452 14.7006 25.5729 14.7729C25.5006 14.8452 25.4025 14.8859 25.3002 14.8859C24.9933 14.8859 24.699 15.0078 24.4819 15.2248C24.2649 15.4418 24.143 15.7361 24.143 16.043C24.143 16.1453 24.1024 16.2434 24.0301 16.3158C23.9577 16.3881 23.8596 16.4287 23.7573 16.4287ZM5.59017 15.6573H23.4102C23.4865 15.287 23.6696 14.9472 23.9369 14.6798C24.2043 14.4124 24.5441 14.2293 24.9145 14.153V5.59017C24.5441 5.51388 24.2043 5.33074 23.9369 5.06339C23.6696 4.79604 23.4865 4.4562 23.4102 4.08588H5.59017C5.51388 4.4562 5.33074 4.79604 5.06339 5.06339C4.79604 5.33074 4.4562 5.51388 4.08588 5.59017V14.153C4.4562 14.2293 4.79604 14.4124 5.06339 14.6798C5.33074 14.9472 5.51388 15.287 5.59017 15.6573Z" fill="white" stroke="white" stroke-width="0.8" stroke-linejoin="round"/>
<path d="M14.4999 13.3433C13.9886 13.3426 13.4984 13.1393 13.1368 12.7777C12.7753 12.4162 12.5719 11.926 12.5713 11.4147H13.3427C13.3427 11.7216 13.4646 12.0159 13.6816 12.2329C13.8986 12.4499 14.193 12.5718 14.4999 12.5718C14.8068 12.5718 15.1011 12.4499 15.3181 12.2329C15.5351 12.0159 15.657 11.7216 15.657 11.4147C15.657 10.7385 14.9712 10.4045 14.3957 10.2433C13.2193 9.91348 12.5713 9.23385 12.5713 8.32896C12.5713 7.81747 12.7745 7.32693 13.1362 6.96526C13.4978 6.60358 13.9884 6.40039 14.4999 6.40039C15.0113 6.40039 15.5019 6.60358 15.8636 6.96526C16.2252 7.32693 16.4284 7.81747 16.4284 8.32896H15.657C15.657 8.02207 15.5351 7.72775 15.3181 7.51074C15.1011 7.29373 14.8068 7.17182 14.4999 7.17182C14.193 7.17182 13.8986 7.29373 13.6816 7.51074C13.4646 7.72775 13.3427 8.02207 13.3427 8.32896C13.3427 8.87166 13.767 9.26586 14.604 9.50038C15.7804 9.83016 16.4284 10.5098 16.4284 11.4147C16.4278 11.926 16.2244 12.4162 15.8629 12.7777C15.5013 13.1393 15.0112 13.3426 14.4999 13.3433Z" fill="white" stroke="white" stroke-width="0.8" stroke-linejoin="round"/>
<path d="M14.1143 5.24219H14.8857V6.78504H14.1143V5.24219Z" fill="white" stroke="white" stroke-width="0.8" stroke-linejoin="round"/>
<path d="M14.1143 12.957H14.8857V14.4999H14.1143V12.957Z" fill="white" stroke="white" stroke-width="0.8" stroke-linejoin="round"/>
<path d="M22.2147 11.4138C21.9096 11.4138 21.6113 11.3234 21.3576 11.1538C21.1038 10.9843 20.9061 10.7433 20.7893 10.4614C20.6725 10.1795 20.642 9.86927 20.7015 9.56999C20.7611 9.2707 20.908 8.99579 21.1238 8.78002C21.3395 8.56425 21.6145 8.4173 21.9137 8.35777C22.213 8.29824 22.5232 8.32879 22.8052 8.44557C23.0871 8.56234 23.328 8.7601 23.4976 9.01382C23.6671 9.26754 23.7576 9.56584 23.7576 9.87099C23.7576 10.2802 23.595 10.6726 23.3057 10.962C23.0164 11.2513 22.6239 11.4138 22.2147 11.4138ZM22.2147 9.09956C22.0622 9.09956 21.913 9.1448 21.7862 9.22956C21.6593 9.31433 21.5604 9.43481 21.502 9.57577C21.4436 9.71673 21.4284 9.87184 21.4581 10.0215C21.4879 10.1711 21.5614 10.3086 21.6693 10.4165C21.7771 10.5244 21.9146 10.5978 22.0642 10.6276C22.2139 10.6574 22.369 10.6421 22.5099 10.5837C22.6509 10.5253 22.7714 10.4264 22.8562 10.2996C22.9409 10.1727 22.9862 10.0236 22.9862 9.87099C22.9862 9.66639 22.9049 9.47017 22.7602 9.3255C22.6155 9.18083 22.4193 9.09956 22.2147 9.09956Z" fill="white" stroke="white" stroke-width="0.8" stroke-linejoin="round"/>
<path d="M6.78602 11.4138C6.48087 11.4138 6.18258 11.3234 5.92886 11.1538C5.67514 10.9843 5.47738 10.7433 5.36061 10.4614C5.24383 10.1795 5.21328 9.86927 5.27281 9.56999C5.33234 9.2707 5.47928 8.99579 5.69506 8.78002C5.91083 8.56425 6.18574 8.4173 6.48503 8.35777C6.78431 8.29824 7.09453 8.32879 7.37645 8.44557C7.65837 8.56234 7.89933 8.7601 8.06886 9.01382C8.23839 9.26754 8.32888 9.56584 8.32888 9.87099C8.32888 10.2802 8.16633 10.6726 7.87699 10.962C7.58764 11.2513 7.19521 11.4138 6.78602 11.4138ZM6.78602 9.09956C6.63345 9.09956 6.4843 9.1448 6.35744 9.22956C6.23058 9.31433 6.1317 9.43481 6.07331 9.57577C6.01493 9.71673 5.99965 9.87184 6.02942 10.0215C6.05918 10.1711 6.13265 10.3086 6.24054 10.4165C6.34843 10.5244 6.48588 10.5978 6.63552 10.6276C6.78517 10.6574 6.94028 10.6421 7.08124 10.5837C7.2222 10.5253 7.34268 10.4264 7.42744 10.2996C7.51221 10.1727 7.55745 10.0236 7.55745 9.87099C7.55745 9.66639 7.47618 9.47017 7.3315 9.3255C7.18683 9.18083 6.99062 9.09956 6.78602 9.09956Z" fill="white" stroke="white" stroke-width="0.8" stroke-linejoin="round"/>
</g>
</svg>
