<svg width="26" height="27" viewBox="0 0 26 27" fill="none" xmlns="http://www.w3.org/2000/svg">
<path d="M15.5208 13.5C15.5208 14.9271 14.4102 16.084 13.0402 16.084C11.6702 16.084 10.5596 14.9271 10.5596 13.5C10.5596 12.0729 11.6702 10.916 13.0402 10.916C14.4102 10.916 15.5208 12.0729 15.5208 13.5Z" fill="white"/>
<path d="M18.8419 8.92782C18.7226 8.59122 18.5324 8.28656 18.2852 8.03648C18.0451 7.77899 17.7528 7.58083 17.4295 7.45661C17.1673 7.35052 16.7734 7.22425 16.0478 7.18985C15.2629 7.15257 15.0276 7.14453 13.0406 7.14453C11.0533 7.14453 10.818 7.15236 10.0333 7.18964C9.30775 7.22425 8.91363 7.35052 8.65161 7.45661C8.32828 7.58083 8.0358 7.77899 7.79593 8.03648C7.54873 8.28656 7.35849 8.59102 7.23905 8.92782C7.13721 9.20097 7.01598 9.61151 6.98296 10.3673C6.94717 11.1847 6.93945 11.4298 6.93945 13.4998C6.93945 15.5697 6.94717 15.8148 6.98296 16.6324C7.01598 17.3882 7.13721 17.7985 7.23905 18.0717C7.35849 18.4085 7.54854 18.7129 7.79573 18.963C8.0358 19.2205 8.32808 19.4187 8.65141 19.5429C8.91363 19.6492 9.30775 19.7754 10.0333 19.8098C10.818 19.8471 11.0531 19.855 13.0404 19.855C15.0278 19.855 15.2631 19.8471 16.0476 19.8098C16.7732 19.7754 17.1673 19.6492 17.4295 19.5429C18.0785 19.2821 18.5915 18.7477 18.8419 18.0717C18.9437 17.7985 19.0649 17.3882 19.0982 16.6324C19.1339 15.8148 19.1415 15.5697 19.1415 13.4998C19.1415 11.4298 19.1339 11.1847 19.0982 10.3673C19.0651 9.61151 18.9439 9.20097 18.8419 8.92782ZM13.0406 17.4803C10.9299 17.4803 9.21896 15.6982 9.21896 13.4996C9.21896 11.3011 10.9299 9.51902 13.0406 9.51902C15.151 9.51902 16.862 11.3011 16.862 13.4996C16.862 15.6982 15.151 17.4803 13.0406 17.4803ZM17.013 10.2919C16.5198 10.2919 16.12 9.87539 16.12 9.36164C16.12 8.84789 16.5198 8.43137 17.013 8.43137C17.5062 8.43137 17.9061 8.84789 17.9061 9.36164C17.9059 9.87539 17.5062 10.2919 17.013 10.2919Z" fill="white"/>
<path d="M13.0401 0C5.88356 0 0.0800781 6.0453 0.0800781 13.5C0.0800781 20.9547 5.88356 27 13.0401 27C20.1966 27 26.0001 20.9547 26.0001 13.5C26.0001 6.0453 20.1966 0 13.0401 0ZM20.4371 16.696C20.4011 17.5212 20.2751 18.0846 20.0912 18.5777C19.7046 19.619 18.9144 20.4422 17.9147 20.8449C17.4415 21.0365 16.9004 21.1675 16.1084 21.2052C15.3148 21.2429 15.0613 21.252 13.0403 21.252C11.019 21.252 10.7657 21.2429 9.97193 21.2052C9.17992 21.1675 8.63887 21.0365 8.16564 20.8449C7.66888 20.6502 7.21919 20.3452 6.84741 19.9507C6.46891 19.5636 6.17604 19.095 5.98916 18.5777C5.80525 18.0848 5.67928 17.5212 5.64329 16.6962C5.60671 15.8693 5.5982 15.6053 5.5982 13.5C5.5982 11.3947 5.60671 11.1307 5.64309 10.304C5.67908 9.4788 5.80486 8.91541 5.98877 8.42226C6.17564 7.90501 6.46872 7.43637 6.84741 7.04931C7.21899 6.65483 7.66888 6.34975 8.16544 6.15509C8.63887 5.96352 9.17972 5.8325 9.97193 5.79481C10.7655 5.75711 11.019 5.74805 13.0401 5.74805C15.0611 5.74805 15.3146 5.75711 16.1082 5.79501C16.9004 5.8325 17.4413 5.96352 17.9147 6.15488C18.4113 6.34955 18.8612 6.65483 19.2329 7.04931C19.6114 7.43658 19.9045 7.90501 20.0912 8.42226C20.2753 8.91541 20.4011 9.4788 20.4373 10.304C20.4734 11.1307 20.482 11.3947 20.482 13.5C20.482 15.6053 20.4734 15.8693 20.4371 16.696Z" fill="white"/>
</svg>
