<svg width="82" height="82" viewBox="0 0 82 82" fill="none" xmlns="http://www.w3.org/2000/svg">
<g filter="url(#filter0_d)">
<path d="M18 30.7362C18 18.1794 28.1794 8 40.7362 8C53.2931 8 63.4724 18.1794 63.4724 30.7362C63.4724 43.2931 53.2931 53.4724 40.7362 53.4724C28.1794 53.4724 18 43.2931 18 30.7362Z" fill="white"/>
</g>
<path d="M50.1665 21.3084C47.9401 19.1748 44.9799 17.9999 41.8315 18C41.3155 18 40.8975 18.4008 40.8975 18.8951C40.8975 19.3894 41.3156 19.7902 41.8315 19.7902C44.481 19.79 46.972 20.7788 48.8456 22.5743C50.7193 24.3698 51.7511 26.7572 51.751 29.2965C51.751 29.7908 52.169 30.1915 52.6849 30.1915C53.2008 30.1915 53.6189 29.7908 53.6189 29.2966C53.6191 26.279 52.393 23.4421 50.1665 21.3084Z" fill="#1C1C1C" stroke="black" stroke-width="1.2"/>
<path d="M46.3245 29.295C46.3245 29.7894 46.7426 30.1901 47.2586 30.19C47.7744 30.19 48.1924 29.7892 48.1924 29.2949C48.1922 25.9342 45.3387 23.1997 41.8316 23.1992C41.8315 23.1992 41.8316 23.1992 41.8315 23.1992C41.3156 23.1992 40.8976 23.5999 40.8975 24.0942C40.8975 24.5885 41.3155 24.9893 41.8313 24.9894C44.3086 24.9897 46.3242 26.9212 46.3245 29.295Z" fill="#1C1C1C" stroke="black" stroke-width="1.2"/>
<path d="M44.2578 33.8617C42.8342 33.791 42.1089 34.8057 41.7611 35.2931C41.4698 35.7011 41.5789 36.2581 42.0047 36.5372C42.4304 36.8164 43.0116 36.7118 43.3029 36.3038C43.7139 35.728 43.9001 35.6374 44.1526 35.6488C44.9609 35.7399 48.1446 37.9757 48.4634 38.6748C48.5434 38.8807 48.5404 39.0825 48.4546 39.328C48.1203 40.2786 47.567 40.9467 46.8542 41.2599C46.177 41.5574 45.3467 41.5304 44.4537 41.1822C41.1191 39.8797 38.2058 38.062 35.7949 35.7794C35.7939 35.7784 35.7929 35.7776 35.792 35.7766C33.4152 33.4684 31.5219 30.6801 30.165 27.4893C29.8015 26.6328 29.7733 25.837 30.0838 25.1881C30.4106 24.505 31.1077 23.9748 32.0989 23.6548C32.3559 23.5722 32.5661 23.5696 32.7789 23.6455C33.5111 23.9521 35.8439 27.003 35.9381 27.7689C35.9515 28.02 35.8563 28.1983 35.2559 28.5914C34.83 28.8702 34.7205 29.4272 35.0115 29.8354C35.3025 30.2435 35.8835 30.3483 36.3096 30.0695C36.8184 29.7365 37.8769 29.0434 37.8034 27.6744C37.7225 26.2444 34.8199 22.4575 33.433 21.9688C32.8162 21.7485 32.1674 21.7447 31.5038 21.9581C30.0109 22.4399 28.9327 23.2989 28.3858 24.4422C27.8553 25.5514 27.8721 26.8383 28.435 28.1644C29.8872 31.5791 31.9189 34.5669 34.4737 37.045C34.4799 37.0511 34.4863 37.0571 34.4927 37.0629C37.0768 39.5067 40.1909 41.4502 43.7492 42.8402C44.4618 43.1179 45.1636 43.257 45.8347 43.257C46.4665 43.257 47.0715 43.1338 47.6327 42.8873C48.8258 42.3632 49.7221 41.3301 50.2252 39.8984C50.4473 39.2637 50.4437 38.6422 50.2156 38.0538C49.7039 36.7211 45.7523 33.9395 44.2578 33.8617Z" fill="#1C1C1C" stroke="black" stroke-width="1.2"/>
<defs>
<filter id="filter0_d" x="0" y="0" width="81.4727" height="81.4727" filterUnits="userSpaceOnUse" color-interpolation-filters="sRGB">
<feFlood flood-opacity="0" result="BackgroundImageFix"/>
<feColorMatrix in="SourceAlpha" type="matrix" values="0 0 0 0 0 0 0 0 0 0 0 0 0 0 0 0 0 0 127 0" result="hardAlpha"/>
<feOffset dy="10"/>
<feGaussianBlur stdDeviation="9"/>
<feColorMatrix type="matrix" values="0 0 0 0 0 0 0 0 0 0 0 0 0 0 0 0 0 0 0.25 0"/>
<feBlend mode="normal" in2="BackgroundImageFix" result="effect1_dropShadow"/>
<feBlend mode="normal" in="SourceGraphic" in2="effect1_dropShadow" result="shape"/>
</filter>
</defs>
</svg>
