<svg width="48" height="48" viewBox="0 0 48 48" fill="none" xmlns="http://www.w3.org/2000/svg">
<g clip-path="url(#clip0)">
<path d="M23.2142 22.798L24.0002 21.75L24.7862 22.798C25.5855 23.8638 26.7494 24.5714 28.0635 24.7904L32.2065 25.4809C32.2848 25.4939 32.3626 25.5003 32.4394 25.5003C33.1144 25.5003 33.7102 25.0128 33.8249 24.3249C33.9525 23.5589 33.435 22.8343 32.6689 22.7066L28.526 22.0162C27.9286 21.9166 27.3996 21.5949 27.0363 21.1105L25.1252 18.5625C24.8596 18.2084 24.4428 18 24.0002 18C23.5576 18 23.1408 18.2084 22.8752 18.5625L20.9642 21.1105C20.601 21.5949 20.0718 21.9166 19.4745 22.0162L15.3315 22.7066C14.5654 22.8343 14.0479 23.5588 14.1756 24.3249C14.3032 25.0911 15.0275 25.6087 15.7939 25.4809L19.9369 24.7904C21.251 24.5713 22.4149 23.8637 23.2142 22.798Z" fill="#DCAD55"/>
<path d="M42.7242 36.5189C41.2183 35.2844 39.2593 34.7952 37.3499 35.1772L34.5581 35.7356L32.9064 33.0685V31.125H34.3126C37.1558 31.125 39.4689 28.8119 39.4689 25.9688C39.4689 20.0147 35.3358 15.0087 29.7882 13.6667C31.1945 12.2148 32.0626 10.2386 32.0626 8.0625C32.0626 3.61688 28.4457 0 24.0001 0C19.5545 0 15.9376 3.61688 15.9376 8.0625C15.9376 10.2386 16.8057 12.2148 18.212 13.6667C12.6644 15.0087 8.53135 20.0147 8.53135 25.9688C8.53135 28.8119 10.8444 31.125 13.6876 31.125H15.0939V33.0685L13.4421 35.7355L10.6503 35.1772C8.76095 34.7992 6.81685 35.2762 5.31695 36.4855C3.81666 37.6953 2.93832 39.4932 2.9071 41.4183C2.87916 43.1426 3.53945 44.7789 4.76626 46.0257C6.00085 47.2805 7.71338 48 9.46473 48H38.6196C42.1895 48 45.0939 45.0956 45.0939 41.5257C45.0939 39.5783 44.2301 37.7535 42.7242 36.5189ZM24.0001 2.8125C26.8949 2.8125 29.2501 5.16769 29.2501 8.0625C29.2501 10.9573 26.8949 13.3125 24.0001 13.3125C21.1053 13.3125 18.7501 10.9573 18.7501 8.0625C18.7501 5.16769 21.1052 2.8125 24.0001 2.8125ZM11.3439 25.9688C11.3439 20.5409 15.7598 16.125 21.1876 16.125H26.8126C32.2404 16.125 36.6564 20.5409 36.6564 25.9688C36.6564 27.2611 35.6049 28.3125 34.3126 28.3125H30.1929C28.26 28.3125 26.3884 27.7458 24.7802 26.6737C24.5439 26.5163 24.272 26.4375 24.0001 26.4375C23.7282 26.4375 23.4563 26.5163 23.2201 26.6737C21.6118 27.7458 19.7402 28.3125 17.8074 28.3125H13.6876C12.3953 28.3125 11.3439 27.2611 11.3439 25.9688ZM17.6956 34.2092C17.8333 33.9867 17.9064 33.7304 17.9064 33.4688V31.1234C20.0548 31.1067 22.1422 30.5475 24.0001 29.4941C25.858 30.5475 27.9454 31.1067 30.0939 31.1234V33.4688C30.0939 33.7304 30.1668 33.9867 30.3046 34.2092L31.6146 36.3243L24.0004 37.8472L16.3858 36.3243L17.6956 34.2092ZM6.7712 44.0532C6.07735 43.348 5.70376 42.4284 5.71941 41.4638C5.73704 40.3758 6.23382 39.3592 7.08254 38.675C7.9307 37.9911 9.03001 37.7212 10.0989 37.9351L17.0096 39.3172C15.318 39.9834 14.1564 41.6354 14.1564 43.5027C14.1564 44.0983 14.2738 44.6667 14.485 45.1875H9.46482C8.46226 45.1875 7.48041 44.7741 6.7712 44.0532ZM38.6196 45.1875H18.6536C17.7247 45.1875 16.9689 44.4317 16.9689 43.5027C16.9689 42.7024 17.5384 42.0077 18.3232 41.8507L37.9015 37.935C38.1421 37.8869 38.3841 37.8632 38.6244 37.8632C39.4624 37.8632 40.279 38.1512 40.941 38.6938C41.7927 39.3921 42.2813 40.4243 42.2813 41.5256C42.2814 43.5449 40.6387 45.1875 38.6196 45.1875Z" fill="#DCAD55"/>
</g>
<defs>
<clipPath id="clip0">
<rect width="48" height="48" fill="white"/>
</clipPath>
</defs>
</svg>
