<svg width="48" height="48" viewBox="0 0 48 48" fill="none" xmlns="http://www.w3.org/2000/svg">
<g clip-path="url(#clip0)">
<path fill-rule="evenodd" clip-rule="evenodd" d="M14.4006 0H33.6006C36.247 0 38.4006 2.15363 38.4006 4.8V43.2C38.4006 45.8464 36.247 48 33.6006 48H14.4006C11.7542 48 9.60059 45.8464 9.60059 43.2V4.8C9.60059 2.15363 11.7542 0 14.4006 0ZM33.6006 45.6C34.9262 45.6 36.0006 44.5256 36.0006 43.2V4.8C36.0006 3.47438 34.9262 2.4 33.6006 2.4H14.4006C13.075 2.4 12.0006 3.47438 12.0006 4.8V43.2C12.0006 44.5256 13.075 45.6 14.4006 45.6H33.6006ZM23.6004 4H28.4004C29.0636 4 29.6004 4.53681 29.6004 5.2C29.6004 5.86319 29.0636 6.4 28.4004 6.4H23.6004C22.9372 6.4 22.4004 5.86319 22.4004 5.2C22.4004 4.53681 22.9372 4 23.6004 4ZM24.0006 44.0012C25.3261 44.0012 26.4006 42.9267 26.4006 41.6012C26.4006 40.2757 25.3261 39.2012 24.0006 39.2012C22.6751 39.2012 21.6006 40.2757 21.6006 41.6012C21.6006 42.9267 22.6751 44.0012 24.0006 44.0012ZM20.8004 5.2C20.8004 5.86274 20.2631 6.4 19.6004 6.4C18.9376 6.4 18.4004 5.86274 18.4004 5.2C18.4004 4.53726 18.9376 4 19.6004 4C20.2631 4 20.8004 4.53726 20.8004 5.2Z" fill="#DCAD55"/>
<path d="M33.6006 -0.5H14.4006V0.5H33.6006V-0.5ZM38.9006 4.8C38.9006 1.87748 36.5231 -0.5 33.6006 -0.5V0.5C35.9708 0.5 37.9006 2.42977 37.9006 4.8H38.9006ZM38.9006 43.2V4.8H37.9006V43.2H38.9006ZM33.6006 48.5C36.5231 48.5 38.9006 46.1225 38.9006 43.2H37.9006C37.9006 45.5702 35.9708 47.5 33.6006 47.5V48.5ZM14.4006 48.5H33.6006V47.5H14.4006V48.5ZM9.10059 43.2C9.10059 46.1225 11.4781 48.5 14.4006 48.5V47.5C12.0304 47.5 10.1006 45.5702 10.1006 43.2H9.10059ZM9.10059 4.8V43.2H10.1006V4.8H9.10059ZM14.4006 -0.5C11.4781 -0.5 9.10059 1.87748 9.10059 4.8H10.1006C10.1006 2.42977 12.0304 0.5 14.4006 0.5V-0.5ZM35.5006 43.2C35.5006 44.2495 34.6501 45.1 33.6006 45.1V46.1C35.2024 46.1 36.5006 44.8018 36.5006 43.2H35.5006ZM35.5006 4.8V43.2H36.5006V4.8H35.5006ZM33.6006 2.9C34.6501 2.9 35.5006 3.75052 35.5006 4.8H36.5006C36.5006 3.19823 35.2024 1.9 33.6006 1.9V2.9ZM14.4006 2.9H33.6006V1.9H14.4006V2.9ZM12.5006 4.8C12.5006 3.75052 13.3511 2.9 14.4006 2.9V1.9C12.7988 1.9 11.5006 3.19823 11.5006 4.8H12.5006ZM12.5006 43.2V4.8H11.5006V43.2H12.5006ZM14.4006 45.1C13.3511 45.1 12.5006 44.2495 12.5006 43.2H11.5006C11.5006 44.8018 12.7988 46.1 14.4006 46.1V45.1ZM33.6006 45.1H14.4006V46.1H33.6006V45.1ZM28.4004 3.5H23.6004V4.5H28.4004V3.5ZM30.1004 5.2C30.1004 4.26067 29.3397 3.5 28.4004 3.5V4.5C28.7874 4.5 29.1004 4.81295 29.1004 5.2H30.1004ZM28.4004 6.9C29.3397 6.9 30.1004 6.13933 30.1004 5.2H29.1004C29.1004 5.58704 28.7874 5.9 28.4004 5.9V6.9ZM23.6004 6.9H28.4004V5.9H23.6004V6.9ZM21.9004 5.2C21.9004 6.13933 22.6611 6.9 23.6004 6.9V5.9C23.2133 5.9 22.9004 5.58704 22.9004 5.2H21.9004ZM23.6004 3.5C22.6611 3.5 21.9004 4.26067 21.9004 5.2H22.9004C22.9004 4.81296 23.2133 4.5 23.6004 4.5V3.5ZM25.9006 41.6012C25.9006 42.6505 25.0499 43.5012 24.0006 43.5012V44.5012C25.6022 44.5012 26.9006 43.2028 26.9006 41.6012H25.9006ZM24.0006 39.7012C25.0499 39.7012 25.9006 40.5518 25.9006 41.6012H26.9006C26.9006 39.9995 25.6022 38.7012 24.0006 38.7012V39.7012ZM22.1006 41.6012C22.1006 40.5518 22.9512 39.7012 24.0006 39.7012V38.7012C22.399 38.7012 21.1006 39.9995 21.1006 41.6012H22.1006ZM24.0006 43.5012C22.9512 43.5012 22.1006 42.6505 22.1006 41.6012H21.1006C21.1006 43.2028 22.399 44.5012 24.0006 44.5012V43.5012ZM19.6004 6.9C20.5393 6.9 21.3004 6.13888 21.3004 5.2H20.3004C20.3004 5.5866 19.987 5.9 19.6004 5.9V6.9ZM17.9004 5.2C17.9004 6.13888 18.6615 6.9 19.6004 6.9V5.9C19.2138 5.9 18.9004 5.5866 18.9004 5.2H17.9004ZM19.6004 3.5C18.6615 3.5 17.9004 4.26112 17.9004 5.2H18.9004C18.9004 4.8134 19.2138 4.5 19.6004 4.5V3.5ZM21.3004 5.2C21.3004 4.26112 20.5393 3.5 19.6004 3.5V4.5C19.987 4.5 20.3004 4.8134 20.3004 5.2H21.3004Z" fill="#DCAD55"/>
</g>
<defs>
<clipPath id="clip0">
<rect width="48" height="48" fill="white"/>
</clipPath>
</defs>
</svg>
