<svg width="48" height="48" viewBox="0 0 48 48" fill="none" xmlns="http://www.w3.org/2000/svg">
<path d="M31.9471 15.493C29.8256 13.3343 26.8305 11.9375 23.5859 11.9375C20.3413 11.9375 17.3462 13.2708 15.2247 15.493C13.1032 17.6518 11.7305 20.6994 11.7305 24.0009C11.7305 27.3025 13.1032 30.3501 15.2247 32.5088C17.3462 34.6675 20.3413 36.0643 23.5859 36.0643C26.8305 36.0643 29.8256 34.731 31.9471 32.5088C34.0686 30.3501 35.4413 27.3025 35.4413 24.0009C35.4413 20.6994 34.131 17.6518 31.9471 15.493ZM29.7008 30.2231C28.1409 31.8104 25.957 32.7628 23.5859 32.7628C21.2148 32.7628 19.0309 31.8104 17.471 30.2231C15.9111 28.6358 14.9751 26.4136 14.9751 24.0009C14.9751 21.5882 15.9111 19.366 17.471 17.7787C19.0309 16.1914 21.2148 15.2391 23.5859 15.2391C25.957 15.2391 28.1409 16.1914 29.7008 17.7787C31.2607 19.366 32.1967 21.5882 32.1967 24.0009C32.1967 26.4136 31.2607 28.6358 29.7008 30.2231Z" fill="#DCAD55"/>
<path d="M45.5499 22.3477H40.7454C39.8718 22.3477 39.123 23.1096 39.123 23.9984C39.123 24.8873 39.8718 25.6492 40.7454 25.6492H45.5499C46.4235 25.6492 47.1722 24.8873 47.1722 23.9984C47.1722 23.1096 46.4235 22.3477 45.5499 22.3477Z" fill="#DCAD55"/>
<path d="M23.5852 39.8105C22.7117 39.8105 21.9629 40.5724 21.9629 41.4613V46.3502C21.9629 47.2391 22.7117 48.001 23.5852 48.001C24.4588 48.001 25.2075 47.2391 25.2075 46.3502V41.4613C25.2075 40.5724 24.4588 39.8105 23.5852 39.8105Z" fill="#DCAD55"/>
<path d="M40.2467 38.6675L36.8149 35.1754C36.2533 34.5405 35.1925 34.5405 34.5686 35.1754C33.9446 35.8103 33.9446 36.8262 34.5686 37.4611L38.0004 40.9532C38.6244 41.5881 39.6227 41.5881 40.2467 40.9532C40.8707 40.3182 40.8707 39.3024 40.2467 38.6675Z" fill="#DCAD55"/>
<path d="M23.5852 0C22.7117 0 21.9629 0.7619 21.9629 1.65078V6.53964C21.9629 7.42853 22.7117 8.19043 23.5852 8.19043C24.4588 8.19043 25.2075 7.42853 25.2075 6.53964V1.65078C25.2075 0.7619 24.4588 0 23.5852 0Z" fill="#DCAD55"/>
<path d="M40.3082 7.0465C39.6842 6.41158 38.6859 6.41158 38.0619 7.0465L34.6301 10.5385C34.0061 11.1735 34.0061 12.1893 34.6301 12.8242C35.1917 13.4592 36.2524 13.4592 36.8764 12.8242L40.3082 9.3322C40.9322 8.69728 40.9322 7.68142 40.3082 7.0465Z" fill="#DCAD55"/>
<path d="M6.42689 22.3477H1.62232C0.748764 22.3477 0 23.1096 0 23.9984C0 24.8873 0.686367 25.6492 1.62232 25.6492H6.42689C7.30045 25.6492 8.04921 24.8873 8.04921 23.9984C8.04921 23.1096 7.30045 22.3477 6.42689 22.3477Z" fill="#DCAD55"/>
<path d="M12.5416 35.1754C11.98 34.5405 10.9193 34.5405 10.2953 35.1754L6.86349 38.6675C6.23952 39.3024 6.23952 40.3182 6.86349 40.9532C7.48746 41.5881 8.48581 41.5881 9.10978 40.9532L12.5416 37.4611C13.1656 36.8262 13.1656 35.8103 12.5416 35.1754Z" fill="#DCAD55"/>
<path d="M12.5416 10.5385L9.10978 7.0465C8.48581 6.41158 7.48746 6.41158 6.86349 7.0465C6.23952 7.68142 6.23952 8.69728 6.86349 9.3322L10.2953 12.8242C10.9193 13.4592 11.9176 13.4592 12.5416 12.8242C13.1656 12.1893 13.1656 11.1735 12.5416 10.5385Z" fill="#DCAD55"/>
</svg>
